<svg width="512" height="512" xmlns="http://www.w3.org/2000/svg"><path style="fill:#4ade80;stroke-width:3;stroke-linejoin:round" d="M76.800001 76.800001A25.599999 25.599999 44.999999 0 0 102.4 102.4 25.599999 25.599999 45.000001 0 1 128 128a25.6 25.6 135 0 1-25.6 25.6H76.800001a25.6 25.6 135 0 0-25.6 25.6 25.6 25.6 45 0 0 25.6 25.6A25.6 25.6 45.000001 0 1 102.4 230.4 25.6 25.6 135 0 1 76.8 256H51.2a25.6 25.6 135 0 0-25.6 25.6 25.59974 25.59974 44.999709 0 0 25.6 25.59974l25.60039-.00026a25.59974 25.59974 44.999709 0 1 25.6 25.59974v.001a25.59981 25.59981 135.00021 0 1-25.6 25.59981h-.000389a25.59981 25.59981 135.00021 0 0-25.6 25.59981 25.6 25.6 45 0 0 25.6 25.6H102.4a25.6 25.6 45 0 1 25.6 25.6 25.600064 25.600064 45.000072 0 0 25.6 25.60006l255.99922.00065a25.599936 25.599936 135.00007 0 0 25.6-25.59994v-.001a25.6 25.6 45 0 0-25.6-25.6 25.59961 25.59961 45.000873 0 1-25.59922-25.6 25.599705 25.599705 135.00077 0 1 25.6-25.59931l51.20001-.0002a25.600095 25.600095 134.99989 0 0 25.6-25.60009V332.8a25.600195 25.600195 45.000218 0 0-25.6-25.60019l-51.20001-.0004a25.600195 25.600195 45.000218 0 1-25.6-25.60019A25.59961 25.59961 135.00087 0 1 409.6 256h25.60001a25.6 25.6 135 0 0 25.6-25.6 25.59974 25.59974 44.999709 0 0-25.6-25.59974l-25.60001.00026a25.59974 25.59974 44.999709 0 1-25.6-25.59974v-.001a25.599903 25.599903 135.00011 0 1 25.6-25.5999l51.20001.00019a25.599903 25.599903 135.00011 0 0 25.6-25.5999 25.6 25.6 45 0 0-25.6-25.6 25.6 25.6 45 0 1-25.6-25.6 25.6 25.6 44.999999 0 0-25.6-25.599999H102.4a25.6 25.6 135 0 0-25.599999 25.6z"/><path style="fill:#b3b3b3;stroke-width:1.90713;stroke-linejoin:round" d="M210.41628 422.69998H263.62a5.18 5.18 45 0 1 5.18 5.18v2.14a5.18 5.18 135 0 1-5.18 5.18h-53.20372a5.18 5.18 45 0 1-5.18-5.18v-2.14a5.18 5.18 135 0 1 5.18-5.18zm-32.21814-147.34997h53.20372a5.18 5.18 45 0 1 5.18 5.18v2.14a5.18 5.18 135 0 1-5.18 5.18h-53.20372a5.18 5.18 45 0 1-5.18-5.18v-2.14a5.18 5.18 135 0 1 5.18-5.18zm-51.19999-121.75h53.20372a5.18 5.18 45 0 1 5.18 5.18v2.14a5.18 5.18 135 0 1-5.18 5.18h-53.20372a5.18 5.18 45 0 1-5.18-5.18v-2.14a5.18 5.18 135 0 1 5.18-5.18zM287.6717 96.150002h53.20372a5.18 5.18 45 0 1 5.18 5.179998v2.14a5.18 5.18 135 0 1-5.18 5.18H287.6717a5.18 5.18 45 0 1-5.18-5.18v-2.14a5.18 5.18 135 0 1 5.18-5.179998z"/><path style="fill:#614f4f;stroke-width:3.87298;stroke-linejoin:round" d="M209.98 358.39999h117.64a5.18 5.18 45 0 1 5.18 5.18v15.24a5.18 5.18 135 0 1-5.18 5.18H209.98a5.18 5.18 45 0 1-5.18-5.18v-15.24a5.18 5.18 135 0 1 5.18-5.18z"/><path style="fill:#614f4f;stroke-width:3.4641;stroke-linejoin:round" d="M133.18 307.20001h92.04001a5.18 5.18 45 0 1 5.18 5.18v15.24a5.18 5.18 135 0 1-5.18 5.18H133.18a5.18 5.18 45 0 1-5.18-5.18v-15.24a5.18 5.18 135 0 1 5.18-5.18z"/><path style="fill:#614f4f;stroke-width:3;stroke-linejoin:round" d="M286.78001 281.60001h66.44a5.18 5.18 45 0 1 5.18 5.18v15.24a5.18 5.18 135 0 1-5.18 5.18h-66.44a5.18 5.18 45 0 1-5.18-5.18v-15.24a5.18 5.18 135 0 1 5.18-5.18z"/><path style="fill:#2b0000;stroke-width:5.99585;stroke-linejoin:round" d="M158.99223 204.80002h143.02778a5.18 5.18 45 0 1 5.18 5.18v40.83997a5.18 5.18 135 0 1-5.18 5.18H158.99223a5.18 5.18 45 0 1-5.18-5.18v-40.83997a5.18 5.18 135 0 1 5.18-5.18z"/><path style="fill:#614f4f;stroke-width:3;stroke-linejoin:round" d="M184.38 102.4h66.44a5.18 5.18 45 0 1 5.18 5.18v15.24a5.18 5.18 135 0 1-5.18 5.18h-66.44a5.18 5.18 45 0 1-5.18-5.18v-15.24a5.18 5.18 135 0 1 5.18-5.18z"/><path style="fill:#614f4f;stroke-width:3.4641;stroke-linejoin:round" d="M235.57999 153.60001H327.62a5.18 5.18 45 0 1 5.18 5.18v15.24a5.18 5.18 135 0 1-5.18 5.18h-92.04001a5.18 5.18 45 0 1-5.18-5.18v-15.24a5.18 5.18 135 0 1 5.18-5.18z"/></svg>