<?xml version="1.0" encoding="UTF-8" standalone="no"?>
<!-- Created with Inkscape (http://www.inkscape.org/) -->

<svg
   width="512"
   height="512"
   viewBox="0 0 512 512"
   version="1.1"
   id="svg1"
   sodipodi:docname="Wordcloud_Image.inkscape.svg"
   inkscape:version="1.3 (0e150ed6c4, 2023-07-21)"
   xmlns:inkscape="http://www.inkscape.org/namespaces/inkscape"
   xmlns:sodipodi="http://sodipodi.sourceforge.net/DTD/sodipodi-0.dtd"
   xmlns="http://www.w3.org/2000/svg"
   xmlns:svg="http://www.w3.org/2000/svg">
  <sodipodi:namedview
     id="namedview1"
     pagecolor="#ffffff"
     bordercolor="#000000"
     borderopacity="0.25"
     inkscape:showpageshadow="2"
     inkscape:pageopacity="0.0"
     inkscape:pagecheckerboard="false"
     inkscape:deskcolor="#d1d1d1"
     inkscape:document-units="px"
     showgrid="true"
     inkscape:lockguides="false"
     showguides="true"
     inkscape:zoom="1.6089441"
     inkscape:cx="312.31663"
     inkscape:cy="297.40002"
     inkscape:window-width="2560"
     inkscape:window-height="1371"
     inkscape:window-x="0"
     inkscape:window-y="0"
     inkscape:window-maximized="1"
     inkscape:current-layer="layer1">
    <inkscape:grid
       id="grid1"
       units="px"
       originx="0"
       originy="0"
       spacingx="25.6"
       spacingy="25.6"
       empcolor="#0099e5"
       empopacity="0.30196078"
       color="#0099e5"
       opacity="0.14901961"
       empspacing="2"
       dotted="false"
       gridanglex="30"
       gridanglez="30"
       visible="true" />
  </sodipodi:namedview>
  <defs
     id="defs1">
    <inkscape:path-effect
       effect="fillet_chamfer"
       id="path-effect20"
       is_visible="true"
       lpeversion="1"
       nodesatellites_param="F,0,0,1,0,5.18,0,1 @ F,0,0,1,0,5.18,0,1 @ F,0,0,1,0,5.18,0,1 @ F,0,0,1,0,5.18,0,1"
       radius="5.18"
       unit="px"
       method="auto"
       mode="F"
       chamfer_steps="1"
       flexible="false"
       use_knot_distance="true"
       apply_no_radius="true"
       apply_with_radius="true"
       only_selected="false"
       hide_knots="false" />
    <inkscape:path-effect
       effect="fillet_chamfer"
       id="path-effect19"
       is_visible="true"
       lpeversion="1"
       nodesatellites_param="F,0,0,1,0,5.18,0,1 @ F,0,0,1,0,5.18,0,1 @ F,0,0,1,0,5.18,0,1 @ F,0,0,1,0,5.18,0,1"
       radius="5.18"
       unit="px"
       method="auto"
       mode="F"
       chamfer_steps="1"
       flexible="false"
       use_knot_distance="true"
       apply_no_radius="true"
       apply_with_radius="true"
       only_selected="false"
       hide_knots="false" />
    <inkscape:path-effect
       effect="fillet_chamfer"
       id="path-effect18"
       is_visible="true"
       lpeversion="1"
       nodesatellites_param="F,0,0,1,0,5.18,0,1 @ F,0,0,1,0,5.18,0,1 @ F,0,0,1,0,5.18,0,1 @ F,0,0,1,0,5.18,0,1"
       radius="5.18"
       unit="px"
       method="auto"
       mode="F"
       chamfer_steps="1"
       flexible="false"
       use_knot_distance="true"
       apply_no_radius="true"
       apply_with_radius="true"
       only_selected="false"
       hide_knots="false" />
    <inkscape:path-effect
       effect="fillet_chamfer"
       id="path-effect17"
       is_visible="true"
       lpeversion="1"
       nodesatellites_param="F,0,0,1,0,5.18,0,1 @ F,0,0,1,0,5.18,0,1 @ F,0,0,1,0,5.18,0,1 @ F,0,0,1,0,5.18,0,1"
       radius="5.18"
       unit="px"
       method="auto"
       mode="F"
       chamfer_steps="1"
       flexible="false"
       use_knot_distance="true"
       apply_no_radius="true"
       apply_with_radius="true"
       only_selected="false"
       hide_knots="false" />
    <inkscape:path-effect
       effect="fillet_chamfer"
       id="path-effect16"
       is_visible="true"
       lpeversion="1"
       nodesatellites_param="F,0,0,1,0,5.18,0,1 @ F,0,0,1,0,5.18,0,1 @ F,0,0,1,0,5.18,0,1 @ F,0,0,1,0,5.18,0,1"
       radius="5.18"
       unit="px"
       method="auto"
       mode="F"
       chamfer_steps="1"
       flexible="false"
       use_knot_distance="true"
       apply_no_radius="true"
       apply_with_radius="true"
       only_selected="false"
       hide_knots="false" />
    <inkscape:path-effect
       effect="fillet_chamfer"
       id="path-effect15"
       is_visible="true"
       lpeversion="1"
       nodesatellites_param="F,0,0,1,0,5.18,0,1 @ F,0,0,1,0,5.18,0,1 @ F,0,0,1,0,5.18,0,1 @ F,0,0,1,0,5.18,0,1"
       radius="5.18"
       unit="px"
       method="auto"
       mode="F"
       chamfer_steps="1"
       flexible="false"
       use_knot_distance="true"
       apply_no_radius="true"
       apply_with_radius="true"
       only_selected="false"
       hide_knots="false" />
    <inkscape:path-effect
       effect="fillet_chamfer"
       id="path-effect14"
       is_visible="true"
       lpeversion="1"
       nodesatellites_param="F,0,0,1,0,5.18,0,1 @ F,0,0,1,0,5.18,0,1 @ F,0,0,1,0,5.18,0,1 @ F,0,0,1,0,5.18,0,1"
       radius="5.18"
       unit="px"
       method="auto"
       mode="F"
       chamfer_steps="1"
       flexible="false"
       use_knot_distance="true"
       apply_no_radius="true"
       apply_with_radius="true"
       only_selected="false"
       hide_knots="false" />
    <inkscape:path-effect
       effect="fillet_chamfer"
       id="path-effect13"
       is_visible="true"
       lpeversion="1"
       nodesatellites_param="F,0,0,1,0,5.18,0,1 @ F,0,0,1,0,5.18,0,1 @ F,0,0,1,0,5.18,0,1 @ F,0,0,1,0,5.18,0,1"
       radius="5.18"
       unit="px"
       method="auto"
       mode="F"
       chamfer_steps="1"
       flexible="false"
       use_knot_distance="true"
       apply_no_radius="true"
       apply_with_radius="true"
       only_selected="false"
       hide_knots="false" />
    <inkscape:path-effect
       effect="fillet_chamfer"
       id="path-effect12"
       is_visible="true"
       lpeversion="1"
       nodesatellites_param="F,0,0,1,0,5.18,0,1 @ F,0,0,1,0,5.18,0,1 @ F,0,0,1,0,5.18,0,1 @ F,0,0,1,0,5.18,0,1"
       radius="5.18"
       unit="px"
       method="auto"
       mode="F"
       chamfer_steps="1"
       flexible="false"
       use_knot_distance="true"
       apply_no_radius="true"
       apply_with_radius="true"
       only_selected="false"
       hide_knots="false" />
    <inkscape:path-effect
       effect="fillet_chamfer"
       id="path-effect11"
       is_visible="true"
       lpeversion="1"
       nodesatellites_param="F,0,0,1,0,5.18,0,1 @ F,0,0,1,0,5.18,0,1 @ F,0,0,1,0,5.18,0,1 @ F,0,0,1,0,5.18,0,1"
       radius="5.18"
       unit="px"
       method="auto"
       mode="F"
       chamfer_steps="1"
       flexible="false"
       use_knot_distance="true"
       apply_no_radius="true"
       apply_with_radius="true"
       only_selected="false"
       hide_knots="false" />
    <inkscape:path-effect
       effect="fillet_chamfer"
       id="path-effect10"
       is_visible="true"
       lpeversion="1"
       nodesatellites_param="F,0,0,1,0,25.6,0,1 @ F,0,0,1,0,25.6,0,1 @ F,0,0,1,0,25.6,0,1 @ F,0,0,1,0,25.6,0,1 @ F,0,0,1,0,25.6,0,1 @ F,0,0,1,0,25.6,0,1 @ F,0,0,1,0,25.6,0,1 @ F,0,0,1,0,25.6,0,1 @ F,0,0,1,0,25.6,0,1 @ F,0,0,1,0,25.6,0,1 @ F,0,0,1,0,25.6,0,1 @ F,0,0,1,0,25.6,0,1 @ F,0,0,1,0,25.6,0,1 @ F,0,0,1,0,25.6,0,1 @ F,0,0,1,0,25.6,0,1 @ F,0,0,1,0,25.6,0,1 @ F,0,0,1,0,25.6,0,1 @ F,0,0,1,0,25.6,0,1 @ F,0,0,1,0,25.6,0,1 @ F,0,0,1,0,25.6,0,1 @ F,0,0,1,0,25.6,0,1 @ F,0,0,1,0,25.6,0,1 @ F,0,0,1,0,25.6,0,1 @ F,0,0,1,0,25.6,0,1 @ F,0,0,1,0,25.6,0,1 @ F,0,0,1,0,25.6,0,1 @ F,0,0,1,0,25.6,0,1 @ F,0,0,1,0,25.6,0,1 @ F,0,0,1,0,25.6,0,1 @ F,0,0,1,0,25.6,0,1 @ F,0,0,1,0,25.6,0,1 @ F,0,0,1,0,25.6,0,1"
       radius="25.6"
       unit="px"
       method="auto"
       mode="F"
       chamfer_steps="1"
       flexible="false"
       use_knot_distance="true"
       apply_no_radius="true"
       apply_with_radius="true"
       only_selected="false"
       hide_knots="false" />
  </defs>
  <g
     inkscape:label="Layer 1"
     inkscape:groupmode="layer"
     id="layer1">
    <path
       id="path8"
       style="fill:#4ade80;stroke-width:3;stroke-linejoin:round"
       d="M 76.800001,76.800001 A 25.599999,25.599999 44.999999 0 0 102.4,102.4 25.599999,25.599999 45.000001 0 1 128,128 25.6,25.6 135 0 1 102.4,153.6 H 76.800001 a 25.6,25.6 135 0 0 -25.6,25.6 25.6,25.6 45 0 0 25.6,25.6 A 25.6,25.6 45.000001 0 1 102.4,230.4 25.6,25.6 135 0 1 76.8,256 H 51.2 a 25.6,25.6 135 0 0 -25.6,25.6 25.59974,25.59974 44.999709 0 0 25.6,25.59974 l 25.60039,-2.6e-4 a 25.59974,25.59974 44.999709 0 1 25.6,25.59974 v 0.001 a 25.59981,25.59981 135.00021 0 1 -25.6,25.59981 l -3.89e-4,0 a 25.59981,25.59981 135.00021 0 0 -25.6,25.59981 25.6,25.6 45 0 0 25.6,25.6 l 25.599999,0 a 25.6,25.6 45 0 1 25.6,25.6 25.600064,25.600064 45.000072 0 0 25.6,25.60006 l 255.99922,6.5e-4 a 25.599936,25.599936 135.00007 0 0 25.6,-25.59994 v -0.001 a 25.6,25.6 45 0 0 -25.6,-25.6 25.59961,25.59961 45.000873 0 1 -25.59922,-25.6 25.599705,25.599705 135.00077 0 1 25.6,-25.59931 l 51.20001,-2e-4 a 25.600095,25.600095 134.99989 0 0 25.6,-25.60009 V 332.8 a 25.600195,25.600195 45.000218 0 0 -25.6,-25.60019 L 409.6,307.19941 A 25.600195,25.600195 45.000218 0 1 384,281.59922 25.59961,25.59961 135.00087 0 1 409.6,256 h 25.60001 a 25.6,25.6 135 0 0 25.6,-25.6 25.59974,25.59974 44.999709 0 0 -25.6,-25.59974 L 409.6,204.80052 A 25.59974,25.59974 44.999709 0 1 384,179.20078 v -0.001 a 25.599903,25.599903 135.00011 0 1 25.6,-25.5999 l 51.20001,1.9e-4 a 25.599903,25.599903 135.00011 0 0 25.6,-25.5999 25.6,25.6 45 0 0 -25.6,-25.6 25.6,25.6 45 0 1 -25.6,-25.6 25.6,25.6 44.999999 0 0 -25.6,-25.599999 l -307.20001,0 a 25.6,25.6 135 0 0 -25.599999,25.6 z"
       inkscape:path-effect="#path-effect10"
       inkscape:original-d="M 76.800001,51.200001 V 102.4 H 128 v 51.2 H 51.200001 v 51.2 H 102.4 V 256 H 25.6 v 51.2 l 76.80039,-7.8e-4 v 51.20117 l -51.200389,-3.8e-4 v 51.2 H 128 v 51.2 l 307.19922,7.7e-4 V 409.59961 H 384 v -51.19922 l 102.40001,-3.8e-4 V 307.2 L 384,307.19922 V 256 h 76.80001 V 204.8 L 384,204.80078 V 153.59961 L 486.40001,153.6 v -51.2 h -51.2 V 51.200001 Z"
       sodipodi:nodetypes="ccccccccccccccccccccccccccccccccc"
       inkscape:label="Background" />
    <g
       id="g10"
       inkscape:label="Words">
      <path
         id="rect10-7"
         style="fill:#b3b3b3;stroke-width:1.90713;stroke-linejoin:round"
         d="m 210.41628,422.69998 53.20372,0 a 5.18,5.18 45 0 1 5.18,5.18 v 2.14 a 5.18,5.18 135 0 1 -5.18,5.18 h -53.20372 a 5.18,5.18 45 0 1 -5.18,-5.18 v -2.14 a 5.18,5.18 135 0 1 5.18,-5.18 z"
         inkscape:path-effect="#path-effect20"
         inkscape:original-d="M 205.23628,422.69998 H 268.8 v 12.5 h -63.56372 z" />
      <path
         id="rect10-7-0"
         style="fill:#b3b3b3;stroke-width:1.90713;stroke-linejoin:round"
         d="m 178.19814,275.35001 h 53.20372 a 5.18,5.18 45 0 1 5.18,5.18 v 2.14 a 5.18,5.18 135 0 1 -5.18,5.18 h -53.20372 a 5.18,5.18 45 0 1 -5.18,-5.18 v -2.14 a 5.18,5.18 135 0 1 5.18,-5.18 z"
         inkscape:path-effect="#path-effect19"
         inkscape:original-d="m 173.01814,275.35001 h 63.56372 v 12.5 h -63.56372 z" />
      <path
         id="rect10-7-06"
         style="fill:#b3b3b3;stroke-width:1.90713;stroke-linejoin:round"
         d="m 126.99815,153.60001 h 53.20372 a 5.18,5.18 45 0 1 5.18,5.18 v 2.14 a 5.18,5.18 135 0 1 -5.18,5.18 h -53.20372 a 5.18,5.18 45 0 1 -5.18,-5.18 l 0,-2.14 a 5.18,5.18 135 0 1 5.18,-5.18 z"
         inkscape:path-effect="#path-effect18"
         inkscape:original-d="m 121.81815,153.60001 h 63.56372 v 12.5 h -63.56372 z" />
      <path
         id="rect10-7-6"
         style="fill:#b3b3b3;stroke-width:1.90713;stroke-linejoin:round"
         d="m 287.6717,96.150002 h 53.20372 a 5.18,5.18 45 0 1 5.18,5.179998 v 2.14 a 5.18,5.18 135 0 1 -5.18,5.18 H 287.6717 a 5.18,5.18 45 0 1 -5.18,-5.18 l 0,-2.14 a 5.18,5.18 135 0 1 5.18,-5.179998 z"
         inkscape:path-effect="#path-effect17"
         inkscape:original-d="m 282.4917,96.150002 h 63.56372 V 108.65 H 282.4917 Z" />
      <path
         id="rect10-3"
         style="fill:#614f4f;stroke-width:3.87298;stroke-linejoin:round"
         d="m 209.98,358.39999 h 117.64 a 5.18,5.18 45 0 1 5.18,5.18 v 15.24 a 5.18,5.18 135 0 1 -5.18,5.18 H 209.98 a 5.18,5.18 45 0 1 -5.18,-5.18 v -15.24 a 5.18,5.18 135 0 1 5.18,-5.18 z"
         inkscape:path-effect="#path-effect16"
         inkscape:original-d="m 204.8,358.39999 h 128 v 25.6 h -128 z" />
      <path
         id="rect10-6"
         style="fill:#614f4f;stroke-width:3.4641;stroke-linejoin:round"
         d="m 133.18,307.20001 h 92.04001 a 5.18,5.18 45 0 1 5.18,5.18 v 15.24 a 5.18,5.18 135 0 1 -5.18,5.18 H 133.18 a 5.18,5.18 45 0 1 -5.18,-5.18 v -15.24 a 5.18,5.18 135 0 1 5.18,-5.18 z"
         inkscape:path-effect="#path-effect15"
         inkscape:original-d="m 128,307.20001 h 102.40001 v 25.6 H 128 Z" />
      <path
         id="rect10-8"
         style="fill:#614f4f;stroke-width:3;stroke-linejoin:round"
         d="m 286.78001,281.60001 h 66.44 a 5.18,5.18 45 0 1 5.18,5.18 v 15.24 a 5.18,5.18 135 0 1 -5.18,5.18 h -66.44 a 5.18,5.18 45 0 1 -5.18,-5.18 v -15.24 a 5.18,5.18 135 0 1 5.18,-5.18 z"
         inkscape:path-effect="#path-effect14"
         inkscape:original-d="m 281.60001,281.60001 h 76.8 v 25.6 h -76.8 z" />
      <path
         id="rect10-5"
         style="fill:#2b0000;stroke-width:5.99585;stroke-linejoin:round"
         d="m 158.99223,204.80002 h 143.02778 a 5.18,5.18 45 0 1 5.18,5.18 l 0,40.83997 a 5.18,5.18 135 0 1 -5.18,5.18 H 158.99223 a 5.18,5.18 45 0 1 -5.18,-5.18 v -40.83997 a 5.18,5.18 135 0 1 5.18,-5.18 z"
         inkscape:label="rect10-5"
         inkscape:path-effect="#path-effect13"
         inkscape:original-d="m 153.81223,204.80002 h 153.38778 v 51.19997 H 153.81223 Z" />
      <path
         id="rect10"
         style="fill:#614f4f;stroke-width:3;stroke-linejoin:round"
         d="m 184.38,102.4 h 66.44 a 5.18,5.18 45 0 1 5.18,5.18 v 15.24 a 5.18,5.18 135 0 1 -5.18,5.18 h -66.44 a 5.18,5.18 45 0 1 -5.18,-5.18 v -15.24 a 5.18,5.18 135 0 1 5.18,-5.18 z"
         inkscape:path-effect="#path-effect12"
         inkscape:original-d="M 179.2,102.4 H 256 V 128 h -76.8 z" />
      <path
         id="rect10-0"
         style="fill:#614f4f;stroke-width:3.4641;stroke-linejoin:round"
         d="m 235.57999,153.60001 92.04001,0 a 5.18,5.18 45 0 1 5.18,5.18 v 15.24 a 5.18,5.18 135 0 1 -5.18,5.18 h -92.04001 a 5.18,5.18 45 0 1 -5.18,-5.18 v -15.24 a 5.18,5.18 135 0 1 5.18,-5.18 z"
         inkscape:path-effect="#path-effect11"
         inkscape:original-d="M 230.39999,153.60001 H 332.8 v 25.6 H 230.39999 Z" />
    </g>
  </g>
</svg>
